# xmcd
#
# Track frame offsets: 
#        150
#        14252
#        32220
#        55587
#        71934
#        94582
#        117507
#        137908
#        154363
#        171746
#
# Disc length: 2542 seconds
#
# Revision: 0
# Processed by: cddbd v1.5.2PL0 Copyright (c) Steve Scherf et al.
# Submitted via: ExactAudioCopyFreeDBPlugin 1.0
#
DISCID=9209ec0a
DTITLE=馬小倩 - 馬小倩-班馬．綫
DYEAR=1900
DGENRE=中文流行曲
TTITLE0=Cherry Ma 的异想世界
TTITLE1=丟手絹
TTITLE2=難奈
TTITLE3=男女主角
TTITLE4=班馬．綫
TTITLE5=任性
TTITLE6=注定
TTITLE7=那就很抱歉
TTITLE8=爸爸媽媽
TTITLE9=十八相送
EXTD=
EXTT0=
EXTT1=
EXTT2=
EXTT3=
EXTT4=
EXTT5=
EXTT6=
EXTT7=
EXTT8=
EXTT9=
PLAYORDER=
